<svg width="34" height="34" viewBox="0 0 34 34" fill="none" xmlns="http://www.w3.org/2000/svg">
<path d="M16.9803 27.0483C17.4912 27.0483 17.9228 26.8721 18.275 26.5196C18.6272 26.1667 18.8033 25.7347 18.8033 25.2235C18.8033 24.7126 18.6269 24.2811 18.2741 23.9288C17.9213 23.5769 17.4894 23.4009 16.9785 23.4009C16.4676 23.4009 16.0361 23.5774 15.6838 23.9302C15.3316 24.283 15.1555 24.7149 15.1555 25.2258C15.1555 25.7367 15.3319 26.1682 15.6847 26.5204C16.0376 26.8724 16.4694 27.0483 16.9803 27.0483ZM15.7129 20.6407H18.2321C18.255 19.76 18.384 19.0563 18.619 18.5296C18.8543 18.0031 19.425 17.3053 20.3311 16.4359C21.1182 15.6488 21.7209 14.922 22.1394 14.2554C22.5581 13.5891 22.7675 12.8022 22.7675 11.8946C22.7675 10.3542 22.2141 9.15092 21.1073 8.28482C20.0002 7.41901 18.6908 6.9861 17.1789 6.9861C15.6853 6.9861 14.4494 7.38471 13.4712 8.18192C12.4926 8.97913 11.7946 9.91801 11.377 10.9986L13.6756 11.9206C13.8936 11.3265 14.2664 10.7477 14.794 10.1843C15.3216 9.62126 16.1051 9.33971 17.1445 9.33971C18.2021 9.33971 18.9838 9.62931 19.4896 10.2085C19.9957 10.788 20.2488 11.4252 20.2488 12.1201C20.2488 12.7282 20.0755 13.2846 19.7289 13.7892C19.3827 14.2939 18.9411 14.7814 18.4043 15.2517C17.2295 16.3116 16.4873 17.1572 16.1777 17.7883C15.8679 18.4191 15.7129 19.3699 15.7129 20.6407ZM17.0031 34C14.6518 34 12.4416 33.5538 10.3727 32.6615C8.30375 31.7691 6.50414 30.5581 4.97384 29.0284C3.44354 27.4987 2.23192 25.6998 1.33897 23.6318C0.446324 21.5638 0 19.3542 0 17.0031C0 14.6518 0.446175 12.4416 1.33853 10.3727C2.23088 8.30375 3.4419 6.50414 4.97161 4.97384C6.50131 3.44354 8.30018 2.23192 10.3682 1.33897C12.4362 0.446324 14.6458 0 16.9969 0C19.3482 0 21.5584 0.446175 23.6273 1.33853C25.6962 2.23088 27.4959 3.4419 29.0262 4.97161C30.5565 6.50131 31.7681 8.30018 32.661 10.3682C33.5537 12.4362 34 14.6458 34 16.9969C34 19.3482 33.5538 21.5584 32.6615 23.6273C31.7691 25.6962 30.5581 27.4959 29.0284 29.0262C27.4987 30.5565 25.6998 31.7681 23.6318 32.661C21.5638 33.5537 19.3542 34 17.0031 34ZM17 31.3158C20.9965 31.3158 24.3816 29.9289 27.1553 27.1553C29.9289 24.3816 31.3158 20.9965 31.3158 17C31.3158 13.0035 29.9289 9.61842 27.1553 6.84474C24.3816 4.07105 20.9965 2.68421 17 2.68421C13.0035 2.68421 9.61842 4.07105 6.84474 6.84474C4.07105 9.61842 2.68421 13.0035 2.68421 17C2.68421 20.9965 4.07105 24.3816 6.84474 27.1553C9.61842 29.9289 13.0035 31.3158 17 31.3158Z" fill="#222222"/>
</svg>
