<svg width="34" height="34" viewBox="0 0 34 34" fill="none" xmlns="http://www.w3.org/2000/svg">
<path d="M14.3377 13.8717C15.2365 13.8717 16.0009 13.557 16.6308 12.9275C17.2605 12.2977 17.5753 11.5335 17.5753 10.635C17.5753 9.73639 17.2605 8.97221 16.6308 8.34244C16.0009 7.71297 15.2365 7.39824 14.3377 7.39824C13.4389 7.39824 12.6745 7.71297 12.0446 8.34244C11.415 8.97221 11.1002 9.73639 11.1002 10.635C11.1002 11.5335 11.415 12.2977 12.0446 12.9275C12.6745 13.557 13.4389 13.8717 14.3377 13.8717ZM14.3553 21.2699C15.5649 21.2699 16.7135 21.0275 17.801 20.5426C18.8885 20.0577 19.8497 19.3647 20.6847 18.4637C19.6647 17.8614 18.6235 17.4079 17.5609 17.1033C16.4984 16.7985 15.4298 16.646 14.3553 16.646C13.1744 16.646 12.0377 16.8014 10.9452 17.1121C9.85309 17.4225 8.87428 17.8731 8.00877 18.4637C8.83172 19.3647 9.78988 20.0577 10.8833 20.5426C11.9766 21.0275 13.134 21.2699 14.3553 21.2699ZM14.3377 28.6682C10.3364 28.6682 6.94655 27.2792 4.16811 24.5011C1.38937 21.7234 0 18.3344 0 14.3341C0 10.3338 1.38937 6.94479 4.16811 4.16706C6.94655 1.38902 10.3364 0 14.3377 0C18.339 0 21.7289 1.38902 24.5073 4.16706C27.2861 6.94479 28.6754 10.3338 28.6754 14.3341C28.6754 16.1078 28.389 17.7397 27.8161 19.2299C27.2435 20.7203 26.4341 22.1212 25.3879 23.4325L33.6067 31.6487C33.8746 31.9169 34.0057 32.2418 33.9998 32.6235C33.9936 33.0051 33.8626 33.33 33.6067 33.5982C33.3384 33.8661 33.0105 34 32.6229 34C32.235 34 31.9071 33.8661 31.6392 33.5982L23.4204 25.3815C22.1091 26.4274 20.7109 27.2366 19.226 27.8091C17.7413 28.3818 16.1119 28.6682 14.3377 28.6682ZM14.3377 25.8938C17.5398 25.8938 20.2674 24.7675 22.5204 22.5147C24.7737 20.2622 25.9004 17.5354 25.9004 14.3341C25.9004 11.1328 24.7737 8.40594 22.5204 6.15349C20.2674 3.90072 17.5398 2.77434 14.3377 2.77434C11.1356 2.77434 8.40807 3.90072 6.15504 6.15349C3.90171 8.40594 2.77504 11.1328 2.77504 14.3341C2.77504 17.5354 3.90171 20.2622 6.15504 22.5147C8.40807 24.7675 11.1356 25.8938 14.3377 25.8938Z" fill="#222222"/>
</svg>
