<svg width="23" height="24" viewBox="0 0 23 24" fill="none" xmlns="http://www.w3.org/2000/svg">
<path d="M3 22.0567V1.94332C3 1.39271 3.19753 0.931174 3.59259 0.558704C3.98765 0.186235 4.44856 0 4.97531 0C5.13992 0 5.31276 0.0242915 5.49383 0.0728745C5.6749 0.121457 5.84774 0.194332 6.01235 0.291498L22.1111 10.3482C22.4074 10.5425 22.6296 10.7854 22.7778 11.0769C22.9259 11.3684 23 11.6761 23 12C23 12.3239 22.9259 12.6316 22.7778 12.9231C22.6296 13.2146 22.4074 13.4575 22.1111 13.6518L6.01235 23.7085C5.84774 23.8057 5.6749 23.8785 5.49383 23.9271C5.31276 23.9757 5.13992 24 4.97531 24C4.44856 24 3.98765 23.8138 3.59259 23.4413C3.19753 23.0688 3 22.6073 3 22.0567ZM6.95062 18.5101L17.321 12L6.95062 5.48988V18.5101Z" fill="#444444"/>
<path d="M20.1838 12.0089L5.3501 20.1242L5.0241 4.52028L20.1838 12.0089Z" fill="#444444"/>
</svg>
