<svg width="34" height="34" viewBox="0 0 34 34" fill="none" xmlns="http://www.w3.org/2000/svg">
<path d="M16.9656 34C14.6461 34 12.4552 33.5532 10.3928 32.6597C8.33015 31.7661 6.52919 30.5496 4.98995 29.0101C3.4504 27.4708 2.23386 25.667 1.34032 23.5987C0.446772 21.5304 0 19.3308 0 17C0 14.6394 0.458851 12.4249 1.37655 10.3566C2.29425 8.28825 3.54062 6.48908 5.11566 4.95908C6.6904 3.42878 8.53266 2.21969 10.6424 1.33182C12.7519 0.44394 15.0019 0 17.3923 0C19.6292 0 21.749 0.381457 23.7517 1.14437C25.7547 1.90728 27.5138 2.96322 29.0288 4.31218C30.5442 5.66115 31.7515 7.26422 32.6507 9.1214C33.5502 10.9783 34 12.9919 34 15.1622C34 18.2595 33.0795 20.6821 31.2384 22.4302C29.3973 24.1785 27.0372 25.0526 24.1579 25.0526H20.9163C20.4069 25.0526 19.9996 25.2189 19.6945 25.5514C19.3894 25.8843 19.2368 26.2778 19.2368 26.7321C19.2368 27.285 19.4605 27.8597 19.9079 28.4562C20.3553 29.0527 20.5789 29.7375 20.5789 30.5105C20.5789 31.6919 20.2521 32.5689 19.5983 33.1415C18.9443 33.7138 18.0667 34 16.9656 34ZM7.1579 18.3421C7.79554 18.3421 8.32776 18.1287 8.75455 17.7019C9.18134 17.2751 9.39474 16.7429 9.39474 16.1053C9.39474 15.4676 9.18134 14.9354 8.75455 14.5086C8.32776 14.0818 7.79554 13.8684 7.1579 13.8684C6.52025 13.8684 5.98803 14.0818 5.56124 14.5086C5.13445 14.9354 4.92105 15.4676 4.92105 16.1053C4.92105 16.7429 5.13445 17.2751 5.56124 17.7019C5.98803 18.1287 6.52025 18.3421 7.1579 18.3421ZM12.5263 11.1842C13.164 11.1842 13.6962 10.9708 14.123 10.544C14.5498 10.1172 14.7632 9.58502 14.7632 8.94737C14.7632 8.30972 14.5498 7.7775 14.123 7.35071C13.6962 6.92392 13.164 6.71053 12.5263 6.71053C11.8887 6.71053 11.3564 6.92392 10.9297 7.35071C10.5029 7.7775 10.2895 8.30972 10.2895 8.94737C10.2895 9.58502 10.5029 10.1172 10.9297 10.544C11.3564 10.9708 11.8887 11.1842 12.5263 11.1842ZM21.4737 11.1842C22.1113 11.1842 22.6436 10.9708 23.0703 10.544C23.4971 10.1172 23.7105 9.58502 23.7105 8.94737C23.7105 8.30972 23.4971 7.7775 23.0703 7.35071C22.6436 6.92392 22.1113 6.71053 21.4737 6.71053C20.836 6.71053 20.3038 6.92392 19.877 7.35071C19.4502 7.7775 19.2368 8.30972 19.2368 8.94737C19.2368 9.58502 19.4502 10.1172 19.877 10.544C20.3038 10.9708 20.836 11.1842 21.4737 11.1842ZM26.8421 18.3421C27.4798 18.3421 28.012 18.1287 28.4388 17.7019C28.8656 17.2751 29.0789 16.7429 29.0789 16.1053C29.0789 15.4676 28.8656 14.9354 28.4388 14.5086C28.012 14.0818 27.4798 13.8684 26.8421 13.8684C26.2045 13.8684 25.6722 14.0818 25.2454 14.5086C24.8187 14.9354 24.6053 15.4676 24.6053 16.1053C24.6053 16.7429 24.8187 17.2751 25.2454 17.7019C25.6722 18.1287 26.2045 18.3421 26.8421 18.3421ZM16.9656 31.3158C17.2569 31.3158 17.4846 31.2441 17.6487 31.1006C17.8127 30.9571 17.8947 30.7605 17.8947 30.5105C17.8947 30.093 17.6711 29.6238 17.2237 29.1031C16.7763 28.5824 16.5526 27.7668 16.5526 26.6564C16.5526 25.3808 16.9851 24.3473 17.85 23.5557C18.7149 22.7642 19.7737 22.3684 21.0263 22.3684H24.1579C26.2641 22.3684 27.9836 21.7514 29.3165 20.5172C30.6494 19.2828 31.3158 17.4978 31.3158 15.1622C31.3158 11.5421 29.9278 8.55741 27.1517 6.20813C24.3759 3.85885 21.1228 2.68421 17.3923 2.68421C13.3019 2.68421 9.82794 4.07105 6.97045 6.84474C4.11296 9.61842 2.68421 13.0035 2.68421 17C2.68421 20.9667 4.07851 24.3443 6.86711 27.1329C9.6557 29.9215 13.0219 31.3158 16.9656 31.3158Z" fill="#222222"/>
</svg>
